<svg width="137" height="96" viewBox="0 0 137 96" fill="none" xmlns="http://www.w3.org/2000/svg">
<rect width="137" height="96" rx="6" fill="#EEEEEE"/>
<g clip-path="url(#clip0_1396_16723)">
<path d="M75.5 25V39H61.5V25H75.5ZM75.5 23H61.5C60.4 23 59.5 23.9 59.5 25V39C59.5 40.1 60.4 41 61.5 41H75.5C76.6 41 77.5 40.1 77.5 39V25C77.5 23.9 76.6 23 75.5 23ZM70.64 31.86L67.64 35.73L65.5 33.14L62.5 37H74.5L70.64 31.86Z" fill="#323232"/>
</g>
<path d="M33.7882 54.764C34.1002 54.764 34.3742 54.724 34.6102 54.644C34.8502 54.564 35.0482 54.452 35.2042 54.308C35.3642 54.16 35.4842 53.982 35.5642 53.774C35.6442 53.566 35.6842 53.334 35.6842 53.078C35.6842 52.826 35.6442 52.6 35.5642 52.4C35.4882 52.2 35.3722 52.03 35.2162 51.89C35.0602 51.75 34.8622 51.644 34.6222 51.572C34.3862 51.496 34.1082 51.458 33.7882 51.458H32.5042V54.764H33.7882ZM33.7882 50.36C34.3522 50.36 34.8402 50.426 35.2522 50.558C35.6682 50.69 36.0102 50.876 36.2782 51.116C36.5502 51.352 36.7522 51.638 36.8842 51.974C37.0162 52.306 37.0822 52.674 37.0822 53.078C37.0822 53.49 37.0122 53.868 36.8722 54.212C36.7322 54.552 36.5242 54.846 36.2482 55.094C35.9722 55.338 35.6282 55.53 35.2162 55.67C34.8082 55.806 34.3322 55.874 33.7882 55.874H32.5042V59H31.1002V50.36H33.7882ZM39.297 54.014C39.489 53.626 39.721 53.322 39.993 53.102C40.265 52.878 40.591 52.766 40.971 52.766C41.103 52.766 41.227 52.782 41.343 52.814C41.459 52.842 41.563 52.886 41.655 52.946L41.565 53.918C41.549 53.986 41.523 54.034 41.487 54.062C41.455 54.086 41.411 54.098 41.355 54.098C41.295 54.098 41.209 54.088 41.097 54.068C40.985 54.044 40.867 54.032 40.743 54.032C40.563 54.032 40.403 54.058 40.263 54.11C40.127 54.162 40.003 54.238 39.891 54.338C39.783 54.438 39.687 54.56 39.603 54.704C39.519 54.848 39.441 55.012 39.369 55.196V59H38.079V52.88H38.829C38.965 52.88 39.059 52.906 39.111 52.958C39.163 53.006 39.199 53.092 39.219 53.216L39.297 54.014ZM44.9437 52.784C45.3957 52.784 45.8037 52.858 46.1677 53.006C46.5357 53.154 46.8477 53.364 47.1037 53.636C47.3637 53.908 47.5637 54.238 47.7037 54.626C47.8437 55.014 47.9137 55.45 47.9137 55.934C47.9137 56.418 47.8437 56.854 47.7037 57.242C47.5637 57.63 47.3637 57.962 47.1037 58.238C46.8477 58.51 46.5357 58.72 46.1677 58.868C45.8037 59.016 45.3957 59.09 44.9437 59.09C44.4877 59.09 44.0757 59.016 43.7077 58.868C43.3437 58.72 43.0317 58.51 42.7717 58.238C42.5117 57.962 42.3117 57.63 42.1717 57.242C42.0317 56.854 41.9617 56.418 41.9617 55.934C41.9617 55.45 42.0317 55.014 42.1717 54.626C42.3117 54.238 42.5117 53.908 42.7717 53.636C43.0317 53.364 43.3437 53.154 43.7077 53.006C44.0757 52.858 44.4877 52.784 44.9437 52.784ZM44.9437 58.082C45.4957 58.082 45.9057 57.898 46.1737 57.53C46.4457 57.158 46.5817 56.628 46.5817 55.94C46.5817 55.252 46.4457 54.722 46.1737 54.35C45.9057 53.974 45.4957 53.786 44.9437 53.786C44.3837 53.786 43.9677 53.974 43.6957 54.35C43.4237 54.722 43.2877 55.252 43.2877 55.94C43.2877 56.628 43.4237 57.158 43.6957 57.53C43.9677 57.898 44.3837 58.082 44.9437 58.082ZM53.0592 54.386C52.8792 54.154 52.6812 53.992 52.4652 53.9C52.2492 53.808 52.0152 53.762 51.7632 53.762C51.2592 53.762 50.8652 53.948 50.5812 54.32C50.2972 54.688 50.1552 55.234 50.1552 55.958C50.1552 56.334 50.1872 56.656 50.2512 56.924C50.3152 57.188 50.4072 57.404 50.5272 57.572C50.6472 57.74 50.7932 57.862 50.9652 57.938C51.1372 58.014 51.3312 58.052 51.5472 58.052C51.8752 58.052 52.1572 57.982 52.3932 57.842C52.6332 57.698 52.8552 57.496 53.0592 57.236V54.386ZM54.3492 50.12V59H53.5692C53.3972 59 53.2872 58.918 53.2392 58.754L53.1252 58.088C52.8692 58.388 52.5772 58.63 52.2492 58.814C51.9252 58.998 51.5472 59.09 51.1152 59.09C50.7712 59.09 50.4592 59.022 50.1792 58.886C49.8992 58.746 49.6592 58.544 49.4592 58.28C49.2592 58.016 49.1032 57.69 48.9912 57.302C48.8832 56.91 48.8292 56.462 48.8292 55.958C48.8292 55.502 48.8892 55.08 49.0092 54.692C49.1332 54.304 49.3092 53.968 49.5372 53.684C49.7652 53.396 50.0412 53.172 50.3652 53.012C50.6932 52.848 51.0592 52.766 51.4632 52.766C51.8232 52.766 52.1292 52.824 52.3812 52.94C52.6332 53.052 52.8592 53.21 53.0592 53.414V50.12H54.3492ZM61.0866 52.88V59H60.3066C60.1346 59 60.0246 58.918 59.9766 58.754L59.8806 58.184C59.7526 58.32 59.6166 58.444 59.4726 58.556C59.3326 58.668 59.1826 58.764 59.0226 58.844C58.8626 58.924 58.6906 58.986 58.5066 59.03C58.3266 59.074 58.1326 59.096 57.9246 59.096C57.5886 59.096 57.2926 59.04 57.0366 58.928C56.7806 58.816 56.5646 58.658 56.3886 58.454C56.2166 58.25 56.0866 58.006 55.9986 57.722C55.9106 57.434 55.8666 57.118 55.8666 56.774V52.88H57.1566V56.774C57.1566 57.186 57.2506 57.506 57.4386 57.734C57.6306 57.962 57.9206 58.076 58.3086 58.076C58.5926 58.076 58.8566 58.012 59.1006 57.884C59.3486 57.752 59.5806 57.572 59.7966 57.344V52.88H61.0866ZM66.9792 54.08C66.9392 54.132 66.9012 54.172 66.8652 54.2C66.8292 54.228 66.7772 54.242 66.7092 54.242C66.6412 54.242 66.5692 54.218 66.4932 54.17C66.4212 54.122 66.3332 54.07 66.2292 54.014C66.1292 53.954 66.0072 53.9 65.8632 53.852C65.7192 53.804 65.5392 53.78 65.3232 53.78C65.0432 53.78 64.7972 53.83 64.5852 53.93C64.3772 54.03 64.2012 54.174 64.0572 54.362C63.9172 54.546 63.8112 54.772 63.7392 55.04C63.6712 55.304 63.6372 55.602 63.6372 55.934C63.6372 56.278 63.6752 56.584 63.7512 56.852C63.8272 57.12 63.9352 57.346 64.0752 57.53C64.2192 57.714 64.3912 57.854 64.5912 57.95C64.7952 58.046 65.0232 58.094 65.2752 58.094C65.5232 58.094 65.7252 58.064 65.8812 58.004C66.0372 57.944 66.1672 57.878 66.2712 57.806C66.3752 57.734 66.4632 57.668 66.5352 57.608C66.6112 57.548 66.6912 57.518 66.7752 57.518C66.8792 57.518 66.9592 57.558 67.0152 57.638L67.3812 58.112C67.2332 58.292 67.0692 58.444 66.8892 58.568C66.7092 58.692 66.5192 58.794 66.3192 58.874C66.1192 58.95 65.9112 59.004 65.6952 59.036C65.4792 59.072 65.2612 59.09 65.0412 59.09C64.6612 59.09 64.3052 59.02 63.9732 58.88C63.6452 58.736 63.3572 58.53 63.1092 58.262C62.8652 57.99 62.6712 57.66 62.5272 57.272C62.3872 56.88 62.3172 56.434 62.3172 55.934C62.3172 55.482 62.3812 55.064 62.5092 54.68C62.6372 54.292 62.8232 53.958 63.0672 53.678C63.3152 53.398 63.6212 53.18 63.9852 53.024C64.3492 52.864 64.7692 52.784 65.2452 52.784C65.6892 52.784 66.0792 52.856 66.4152 53C66.7552 53.144 67.0572 53.348 67.3212 53.612L66.9792 54.08ZM70.3808 59.096C69.8728 59.096 69.4808 58.954 69.2048 58.67C68.9328 58.382 68.7968 57.978 68.7968 57.458V53.894H68.1248C68.0528 53.894 67.9908 53.872 67.9388 53.828C67.8868 53.78 67.8608 53.71 67.8608 53.618V53.096L68.8508 52.952L69.1328 51.182C69.1528 51.114 69.1868 51.06 69.2348 51.02C69.2828 50.976 69.3468 50.954 69.4268 50.954H70.0868V52.964H71.7848V53.894H70.0868V57.368C70.0868 57.588 70.1408 57.756 70.2488 57.872C70.3568 57.988 70.5008 58.046 70.6808 58.046C70.7808 58.046 70.8668 58.034 70.9388 58.01C71.0108 57.982 71.0728 57.954 71.1248 57.926C71.1768 57.894 71.2208 57.866 71.2568 57.842C71.2968 57.814 71.3348 57.8 71.3708 57.8C71.4428 57.8 71.5008 57.84 71.5448 57.92L71.9288 58.55C71.7288 58.726 71.4928 58.862 71.2208 58.958C70.9488 59.05 70.6688 59.096 70.3808 59.096ZM77.4399 59H76.0299V50.36H77.4399V59ZM79.1532 59V52.88H79.9332C80.1092 52.88 80.2212 52.962 80.2692 53.126L80.3532 53.66C80.4652 53.532 80.5812 53.416 80.7012 53.312C80.8212 53.204 80.9492 53.112 81.0852 53.036C81.2252 52.956 81.3732 52.894 81.5292 52.85C81.6892 52.806 81.8612 52.784 82.0452 52.784C82.2412 52.784 82.4212 52.812 82.5852 52.868C82.7492 52.924 82.8932 53.004 83.0172 53.108C83.1452 53.212 83.2552 53.338 83.3472 53.486C83.4392 53.634 83.5152 53.8 83.5752 53.984C83.6672 53.772 83.7832 53.59 83.9232 53.438C84.0632 53.286 84.2192 53.162 84.3912 53.066C84.5632 52.97 84.7452 52.9 84.9372 52.856C85.1332 52.808 85.3312 52.784 85.5312 52.784C85.8592 52.784 86.1512 52.836 86.4072 52.94C86.6672 53.044 86.8852 53.196 87.0612 53.396C87.2412 53.592 87.3772 53.834 87.4692 54.122C87.5612 54.41 87.6072 54.738 87.6072 55.106V59H86.3172V55.106C86.3172 54.674 86.2232 54.35 86.0352 54.134C85.8512 53.914 85.5772 53.804 85.2132 53.804C85.0492 53.804 84.8952 53.832 84.7512 53.888C84.6072 53.944 84.4812 54.026 84.3732 54.134C84.2652 54.242 84.1792 54.378 84.1152 54.542C84.0552 54.702 84.0252 54.89 84.0252 55.106V59H82.7352V55.106C82.7352 54.658 82.6452 54.33 82.4652 54.122C82.2852 53.91 82.0212 53.804 81.6732 53.804C81.4332 53.804 81.2112 53.866 81.0072 53.99C80.8032 54.11 80.6152 54.276 80.4432 54.488V59H79.1532ZM92.3841 56.324C91.9241 56.34 91.5361 56.378 91.2201 56.438C90.9041 56.494 90.6481 56.568 90.4521 56.66C90.2561 56.748 90.1141 56.854 90.0261 56.978C89.9421 57.102 89.9001 57.238 89.9001 57.386C89.9001 57.53 89.9221 57.654 89.9661 57.758C90.0141 57.858 90.0781 57.942 90.1581 58.01C90.2421 58.074 90.3381 58.122 90.4461 58.154C90.5581 58.182 90.6801 58.196 90.8121 58.196C91.1481 58.196 91.4361 58.134 91.6761 58.01C91.9201 57.882 92.1561 57.698 92.3841 57.458V56.324ZM88.9641 53.732C89.6561 53.088 90.4801 52.766 91.4361 52.766C91.7881 52.766 92.1001 52.824 92.3721 52.94C92.6481 53.052 92.8781 53.212 93.0621 53.42C93.2501 53.628 93.3921 53.876 93.4881 54.164C93.5881 54.448 93.6381 54.764 93.6381 55.112V59H93.0621C92.9381 59 92.8441 58.982 92.7801 58.946C92.7161 58.906 92.6621 58.828 92.6181 58.712L92.4921 58.214C92.3361 58.354 92.1821 58.48 92.0301 58.592C91.8781 58.7 91.7201 58.792 91.5561 58.868C91.3961 58.944 91.2221 59 91.0341 59.036C90.8501 59.076 90.6461 59.096 90.4221 59.096C90.1741 59.096 89.9421 59.062 89.7261 58.994C89.5141 58.926 89.3301 58.824 89.1741 58.688C89.0181 58.548 88.8941 58.376 88.8021 58.172C88.7141 57.968 88.6701 57.728 88.6701 57.452C88.6701 57.216 88.7321 56.986 88.8561 56.762C88.9841 56.538 89.1921 56.338 89.4801 56.162C89.7721 55.982 90.1541 55.834 90.6261 55.718C91.1021 55.602 91.6881 55.536 92.3841 55.52V55.112C92.3841 54.672 92.2901 54.344 92.1021 54.128C91.9141 53.912 91.6381 53.804 91.2741 53.804C91.0261 53.804 90.8181 53.836 90.6501 53.9C90.4821 53.96 90.3361 54.026 90.2121 54.098C90.0881 54.17 89.9781 54.238 89.8821 54.302C89.7861 54.362 89.6841 54.392 89.5761 54.392C89.4881 54.392 89.4121 54.37 89.3481 54.326C89.2881 54.278 89.2381 54.22 89.1981 54.152L88.9641 53.732ZM97.3333 55.886C97.7333 55.886 98.0333 55.784 98.2333 55.58C98.4333 55.376 98.5333 55.11 98.5333 54.782C98.5333 54.446 98.4333 54.18 98.2333 53.984C98.0333 53.788 97.7333 53.69 97.3333 53.69C96.9373 53.69 96.6373 53.788 96.4333 53.984C96.2333 54.18 96.1333 54.446 96.1333 54.782C96.1333 54.942 96.1593 55.09 96.2113 55.226C96.2633 55.362 96.3393 55.48 96.4393 55.58C96.5393 55.676 96.6633 55.752 96.8113 55.808C96.9633 55.86 97.1373 55.886 97.3333 55.886ZM99.1273 59.3C99.1273 59.164 99.0873 59.056 99.0073 58.976C98.9313 58.892 98.8273 58.828 98.6953 58.784C98.5633 58.736 98.4093 58.702 98.2333 58.682C98.0573 58.658 97.8693 58.642 97.6693 58.634C97.4733 58.622 97.2713 58.612 97.0633 58.604C96.8593 58.592 96.6613 58.572 96.4693 58.544C96.2773 58.644 96.1193 58.764 95.9953 58.904C95.8753 59.044 95.8153 59.206 95.8153 59.39C95.8153 59.51 95.8453 59.622 95.9053 59.726C95.9693 59.83 96.0653 59.92 96.1933 59.996C96.3253 60.072 96.4913 60.132 96.6913 60.176C96.8953 60.22 97.1393 60.242 97.4233 60.242C97.9913 60.242 98.4173 60.154 98.7013 59.978C98.9853 59.802 99.1273 59.576 99.1273 59.3ZM100.423 53.102V53.582C100.423 53.742 100.327 53.84 100.135 53.876L99.5233 53.978C99.6273 54.21 99.6793 54.468 99.6793 54.752C99.6793 55.052 99.6193 55.324 99.4993 55.568C99.3833 55.812 99.2213 56.02 99.0133 56.192C98.8053 56.364 98.5573 56.496 98.2693 56.588C97.9813 56.68 97.6693 56.726 97.3333 56.726C97.2053 56.726 97.0793 56.72 96.9553 56.708C96.8353 56.692 96.7173 56.672 96.6013 56.648C96.4853 56.716 96.3993 56.788 96.3433 56.864C96.2873 56.94 96.2593 57.018 96.2593 57.098C96.2593 57.23 96.3173 57.328 96.4333 57.392C96.5493 57.456 96.7013 57.502 96.8893 57.53C97.0813 57.558 97.2993 57.576 97.5433 57.584C97.7873 57.592 98.0353 57.606 98.2873 57.626C98.5393 57.646 98.7873 57.68 99.0313 57.728C99.2753 57.772 99.4913 57.848 99.6793 57.956C99.8713 58.06 100.025 58.202 100.141 58.382C100.257 58.562 100.315 58.796 100.315 59.084C100.315 59.348 100.249 59.606 100.117 59.858C99.9853 60.11 99.7933 60.334 99.5413 60.53C99.2933 60.726 98.9893 60.882 98.6293 60.998C98.2693 61.118 97.8593 61.178 97.3993 61.178C96.9433 61.178 96.5453 61.134 96.2053 61.046C95.8693 60.958 95.5873 60.838 95.3593 60.686C95.1353 60.538 94.9673 60.366 94.8553 60.17C94.7473 59.974 94.6933 59.77 94.6933 59.558C94.6933 59.27 94.7833 59.024 94.9633 58.82C95.1473 58.616 95.3953 58.456 95.7073 58.34C95.5393 58.26 95.4033 58.15 95.2993 58.01C95.1993 57.87 95.1493 57.686 95.1493 57.458C95.1493 57.278 95.2153 57.09 95.3473 56.894C95.4793 56.698 95.6773 56.532 95.9413 56.396C95.6373 56.228 95.3973 56.006 95.2213 55.73C95.0453 55.45 94.9573 55.124 94.9573 54.752C94.9573 54.448 95.0153 54.174 95.1313 53.93C95.2513 53.686 95.4173 53.478 95.6293 53.306C95.8413 53.134 96.0913 53.002 96.3793 52.91C96.6713 52.818 96.9893 52.772 97.3333 52.772C97.8613 52.772 98.3213 52.882 98.7133 53.102H100.423ZM105.351 55.25C105.351 55.034 105.319 54.834 105.255 54.65C105.195 54.462 105.105 54.3 104.985 54.164C104.865 54.024 104.715 53.916 104.535 53.84C104.359 53.76 104.155 53.72 103.923 53.72C103.455 53.72 103.087 53.854 102.819 54.122C102.551 54.39 102.381 54.766 102.309 55.25H105.351ZM102.273 56.042C102.289 56.39 102.343 56.692 102.435 56.948C102.527 57.2 102.649 57.41 102.801 57.578C102.957 57.746 103.141 57.872 103.353 57.956C103.569 58.036 103.809 58.076 104.073 58.076C104.325 58.076 104.543 58.048 104.727 57.992C104.911 57.932 105.071 57.868 105.207 57.8C105.343 57.728 105.459 57.664 105.555 57.608C105.651 57.548 105.739 57.518 105.819 57.518C105.923 57.518 106.003 57.558 106.059 57.638L106.425 58.112C106.273 58.292 106.101 58.444 105.909 58.568C105.717 58.692 105.513 58.794 105.297 58.874C105.081 58.95 104.859 59.004 104.631 59.036C104.403 59.072 104.181 59.09 103.965 59.09C103.541 59.09 103.147 59.02 102.783 58.88C102.423 58.736 102.109 58.526 101.841 58.25C101.577 57.974 101.369 57.632 101.217 57.224C101.069 56.816 100.995 56.346 100.995 55.814C100.995 55.39 101.061 54.994 101.193 54.626C101.329 54.258 101.521 53.938 101.769 53.666C102.021 53.394 102.325 53.18 102.681 53.024C103.041 52.864 103.447 52.784 103.899 52.784C104.275 52.784 104.623 52.846 104.943 52.97C105.263 53.09 105.539 53.268 105.771 53.504C106.003 53.74 106.183 54.03 106.311 54.374C106.443 54.714 106.509 55.102 106.509 55.538C106.509 55.738 106.487 55.872 106.443 55.94C106.399 56.008 106.319 56.042 106.203 56.042H102.273Z" fill="#181A1F"/>
<path d="M46.0989 66.835V74H45.6139C45.5372 74 45.4722 73.9867 45.4189 73.96C45.3689 73.9333 45.3189 73.8883 45.2689 73.825L41.1239 68.425C41.1306 68.5083 41.1356 68.59 41.1389 68.67C41.1422 68.75 41.1439 68.825 41.1439 68.895V74H40.2939V66.835H40.7939C40.8372 66.835 40.8739 66.8383 40.9039 66.845C40.9339 66.8483 40.9606 66.8567 40.9839 66.87C41.0072 66.88 41.0306 66.8967 41.0539 66.92C41.0772 66.94 41.1022 66.9667 41.1289 67L45.2739 72.395C45.2672 72.3083 45.2606 72.225 45.2539 72.145C45.2506 72.0617 45.2489 71.9833 45.2489 71.91V66.835H46.0989ZM49.6994 68.855C50.0694 68.855 50.4027 68.9167 50.6994 69.04C50.996 69.1633 51.2494 69.3383 51.4594 69.565C51.6694 69.7917 51.8294 70.0667 51.9394 70.39C52.0527 70.71 52.1094 71.0683 52.1094 71.465C52.1094 71.865 52.0527 72.225 51.9394 72.545C51.8294 72.865 51.6694 73.1383 51.4594 73.365C51.2494 73.5917 50.996 73.7667 50.6994 73.89C50.4027 74.01 50.0694 74.07 49.6994 74.07C49.326 74.07 48.9894 74.01 48.6894 73.89C48.3927 73.7667 48.1394 73.5917 47.9294 73.365C47.7194 73.1383 47.5577 72.865 47.4444 72.545C47.3344 72.225 47.2794 71.865 47.2794 71.465C47.2794 71.0683 47.3344 70.71 47.4444 70.39C47.5577 70.0667 47.7194 69.7917 47.9294 69.565C48.1394 69.3383 48.3927 69.1633 48.6894 69.04C48.9894 68.9167 49.326 68.855 49.6994 68.855ZM49.6994 73.375C50.1994 73.375 50.5727 73.2083 50.8194 72.875C51.066 72.5383 51.1894 72.07 51.1894 71.47C51.1894 70.8667 51.066 70.3967 50.8194 70.06C50.5727 69.7233 50.1994 69.555 49.6994 69.555C49.446 69.555 49.2244 69.5983 49.0344 69.685C48.8477 69.7717 48.691 69.8967 48.5644 70.06C48.441 70.2233 48.3477 70.425 48.2844 70.665C48.2244 70.9017 48.1944 71.17 48.1944 71.47C48.1944 72.07 48.3177 72.5383 48.5644 72.875C48.8144 73.2083 49.1927 73.375 49.6994 73.375ZM54.7053 74.08C54.3053 74.08 53.997 73.9683 53.7803 73.745C53.567 73.5217 53.4603 73.2 53.4603 72.78V69.68H52.8503C52.797 69.68 52.752 69.665 52.7153 69.635C52.6786 69.6017 52.6603 69.5517 52.6603 69.485V69.13L53.4903 69.025L53.6953 67.46C53.7053 67.41 53.727 67.37 53.7603 67.34C53.797 67.3067 53.8436 67.29 53.9003 67.29H54.3503V69.035H55.8153V69.68H54.3503V72.72C54.3503 72.9333 54.402 73.0917 54.5053 73.195C54.6086 73.2983 54.742 73.35 54.9053 73.35C54.9986 73.35 55.0786 73.3383 55.1453 73.315C55.2153 73.2883 55.2753 73.26 55.3253 73.23C55.3753 73.2 55.417 73.1733 55.4503 73.15C55.487 73.1233 55.5186 73.11 55.5453 73.11C55.592 73.11 55.6336 73.1383 55.6703 73.195L55.9303 73.62C55.777 73.7633 55.592 73.8767 55.3753 73.96C55.1586 74.04 54.9353 74.08 54.7053 74.08ZM62.9759 71.34L61.8509 68.425C61.8175 68.3383 61.7825 68.2383 61.7459 68.125C61.7092 68.0083 61.6742 67.885 61.6409 67.755C61.5709 68.025 61.4992 68.25 61.4259 68.43L60.3009 71.34H62.9759ZM64.9959 74H64.2459C64.1592 74 64.0892 73.9783 64.0359 73.935C63.9825 73.8917 63.9425 73.8367 63.9159 73.77L63.2459 72.04H60.0309L59.3609 73.77C59.3409 73.83 59.3025 73.8833 59.2459 73.93C59.1892 73.9767 59.1192 74 59.0359 74H58.2859L61.1509 66.835H62.1309L64.9959 74ZM69.668 68.935L67.603 74H66.803L64.738 68.935H65.463C65.5364 68.935 65.5964 68.9533 65.643 68.99C65.6897 69.0267 65.7214 69.07 65.738 69.12L67.023 72.38C67.063 72.5033 67.098 72.6233 67.128 72.74C67.158 72.8567 67.1864 72.9733 67.213 73.09C67.2397 72.9733 67.268 72.8567 67.298 72.74C67.328 72.6233 67.3647 72.5033 67.408 72.38L68.708 69.12C68.728 69.0667 68.7614 69.0233 68.808 68.99C68.8547 68.9533 68.9097 68.935 68.973 68.935H69.668ZM73.1219 71.72C72.7119 71.7333 72.3619 71.7667 72.0719 71.82C71.7852 71.87 71.5502 71.9367 71.3669 72.02C71.1869 72.1033 71.0552 72.2017 70.9719 72.315C70.8919 72.4283 70.8519 72.555 70.8519 72.695C70.8519 72.8283 70.8735 72.9433 70.9169 73.04C70.9602 73.1367 71.0185 73.2167 71.0919 73.28C71.1685 73.34 71.2569 73.385 71.3569 73.415C71.4602 73.4417 71.5702 73.455 71.6869 73.455C71.8435 73.455 71.9869 73.44 72.1169 73.41C72.2469 73.3767 72.3685 73.33 72.4819 73.27C72.5985 73.21 72.7085 73.1383 72.8119 73.055C72.9185 72.9717 73.0219 72.8767 73.1219 72.77V71.72ZM70.2469 69.65C70.5269 69.38 70.8285 69.1783 71.1519 69.045C71.4752 68.9117 71.8335 68.845 72.2269 68.845C72.5102 68.845 72.7619 68.8917 72.9819 68.985C73.2019 69.0783 73.3869 69.2083 73.5369 69.375C73.6869 69.5417 73.8002 69.7433 73.8769 69.98C73.9535 70.2167 73.9919 70.4767 73.9919 70.76V74H73.5969C73.5102 74 73.4435 73.9867 73.3969 73.96C73.3502 73.93 73.3135 73.8733 73.2869 73.79L73.1869 73.31C73.0535 73.4333 72.9235 73.5433 72.7969 73.64C72.6702 73.7333 72.5369 73.8133 72.3969 73.88C72.2569 73.9433 72.1069 73.9917 71.9469 74.025C71.7902 74.0617 71.6152 74.08 71.4219 74.08C71.2252 74.08 71.0402 74.0533 70.8669 74C70.6935 73.9433 70.5419 73.86 70.4119 73.75C70.2852 73.64 70.1835 73.5017 70.1069 73.335C70.0335 73.165 69.9969 72.965 69.9969 72.735C69.9969 72.535 70.0519 72.3433 70.1619 72.16C70.2719 71.9733 70.4502 71.8083 70.6969 71.665C70.9435 71.5217 71.2652 71.405 71.6619 71.315C72.0585 71.2217 72.5452 71.1683 73.1219 71.155V70.76C73.1219 70.3667 73.0369 70.07 72.8669 69.87C72.6969 69.6667 72.4485 69.565 72.1219 69.565C71.9019 69.565 71.7169 69.5933 71.5669 69.65C71.4202 69.7033 71.2919 69.765 71.1819 69.835C71.0752 69.9017 70.9819 69.9633 70.9019 70.02C70.8252 70.0733 70.7485 70.1 70.6719 70.1C70.6119 70.1 70.5602 70.085 70.5169 70.055C70.4735 70.0217 70.4369 69.9817 70.4069 69.935L70.2469 69.65ZM76.2876 68.935V74H75.3976V68.935H76.2876ZM76.4776 67.345C76.4776 67.4317 76.4592 67.5133 76.4226 67.59C76.3892 67.6633 76.3426 67.73 76.2826 67.79C76.2259 67.8467 76.1576 67.8917 76.0776 67.925C76.0009 67.9583 75.9192 67.975 75.8326 67.975C75.7459 67.975 75.6642 67.9583 75.5876 67.925C75.5142 67.8917 75.4492 67.8467 75.3926 67.79C75.3359 67.73 75.2909 67.6633 75.2576 67.59C75.2242 67.5133 75.2076 67.4317 75.2076 67.345C75.2076 67.2583 75.2242 67.1767 75.2576 67.1C75.2909 67.02 75.3359 66.9517 75.3926 66.895C75.4492 66.835 75.5142 66.7883 75.5876 66.755C75.6642 66.7217 75.7459 66.705 75.8326 66.705C75.9192 66.705 76.0009 66.7217 76.0776 66.755C76.1576 66.7883 76.2259 66.835 76.2826 66.895C76.3426 66.9517 76.3892 67.02 76.4226 67.1C76.4592 67.1767 76.4776 67.2583 76.4776 67.345ZM78.6699 66.635V74H77.7799V66.635H78.6699ZM82.8582 71.72C82.4482 71.7333 82.0982 71.7667 81.8082 71.82C81.5215 71.87 81.2865 71.9367 81.1032 72.02C80.9232 72.1033 80.7915 72.2017 80.7082 72.315C80.6282 72.4283 80.5882 72.555 80.5882 72.695C80.5882 72.8283 80.6099 72.9433 80.6532 73.04C80.6965 73.1367 80.7549 73.2167 80.8282 73.28C80.9049 73.34 80.9932 73.385 81.0932 73.415C81.1965 73.4417 81.3065 73.455 81.4232 73.455C81.5799 73.455 81.7232 73.44 81.8532 73.41C81.9832 73.3767 82.1049 73.33 82.2182 73.27C82.3349 73.21 82.4449 73.1383 82.5482 73.055C82.6549 72.9717 82.7582 72.8767 82.8582 72.77V71.72ZM79.9832 69.65C80.2632 69.38 80.5649 69.1783 80.8882 69.045C81.2115 68.9117 81.5699 68.845 81.9632 68.845C82.2465 68.845 82.4982 68.8917 82.7182 68.985C82.9382 69.0783 83.1232 69.2083 83.2732 69.375C83.4232 69.5417 83.5365 69.7433 83.6132 69.98C83.6899 70.2167 83.7282 70.4767 83.7282 70.76V74H83.3332C83.2465 74 83.1799 73.9867 83.1332 73.96C83.0865 73.93 83.0499 73.8733 83.0232 73.79L82.9232 73.31C82.7899 73.4333 82.6599 73.5433 82.5332 73.64C82.4065 73.7333 82.2732 73.8133 82.1332 73.88C81.9932 73.9433 81.8432 73.9917 81.6832 74.025C81.5265 74.0617 81.3515 74.08 81.1582 74.08C80.9615 74.08 80.7765 74.0533 80.6032 74C80.4299 73.9433 80.2782 73.86 80.1482 73.75C80.0215 73.64 79.9199 73.5017 79.8432 73.335C79.7699 73.165 79.7332 72.965 79.7332 72.735C79.7332 72.535 79.7882 72.3433 79.8982 72.16C80.0082 71.9733 80.1865 71.8083 80.4332 71.665C80.6799 71.5217 81.0015 71.405 81.3982 71.315C81.7949 71.2217 82.2815 71.1683 82.8582 71.155V70.76C82.8582 70.3667 82.7732 70.07 82.6032 69.87C82.4332 69.6667 82.1849 69.565 81.8582 69.565C81.6382 69.565 81.4532 69.5933 81.3032 69.65C81.1565 69.7033 81.0282 69.765 80.9182 69.835C80.8115 69.9017 80.7182 69.9633 80.6382 70.02C80.5615 70.0733 80.4849 70.1 80.4082 70.1C80.3482 70.1 80.2965 70.085 80.2532 70.055C80.2099 70.0217 80.1732 69.9817 80.1432 69.935L79.9832 69.65ZM85.9789 72.78C86.1422 73 86.3206 73.155 86.5139 73.245C86.7106 73.335 86.9256 73.38 87.1589 73.38C87.6356 73.38 88.0006 73.2117 88.2539 72.875C88.5072 72.5383 88.6339 72.0367 88.6339 71.37C88.6339 70.75 88.5206 70.295 88.2939 70.005C88.0706 69.7117 87.7506 69.565 87.3339 69.565C87.0439 69.565 86.7906 69.6317 86.5739 69.765C86.3606 69.8983 86.1622 70.0867 85.9789 70.33V72.78ZM85.9789 69.665C86.1922 69.4183 86.4322 69.2217 86.6989 69.075C86.9689 68.9283 87.2789 68.855 87.6289 68.855C87.9256 68.855 88.1922 68.9117 88.4289 69.025C88.6689 69.1383 88.8722 69.3033 89.0389 69.52C89.2056 69.7333 89.3322 69.9933 89.4189 70.3C89.5089 70.6067 89.5539 70.9517 89.5539 71.335C89.5539 71.745 89.5039 72.1183 89.4039 72.455C89.3039 72.7917 89.1589 73.08 88.9689 73.32C88.7822 73.5567 88.5539 73.7417 88.2839 73.875C88.0139 74.005 87.7106 74.07 87.3739 74.07C87.0406 74.07 86.7589 74.0083 86.5289 73.885C86.3022 73.7583 86.1039 73.58 85.9339 73.35L85.8889 73.81C85.8622 73.9367 85.7856 74 85.6589 74H85.0839V66.635H85.9789V69.665ZM91.5996 66.635V74H90.7096V66.635H91.5996ZM96.4329 70.915C96.4329 70.7083 96.4029 70.52 96.3429 70.35C96.2862 70.1767 96.2012 70.0283 96.0879 69.905C95.9779 69.7783 95.8429 69.6817 95.6829 69.615C95.5229 69.545 95.3412 69.51 95.1379 69.51C94.7112 69.51 94.3729 69.635 94.1229 69.885C93.8762 70.1317 93.7229 70.475 93.6629 70.915H96.4329ZM97.1529 73.29C97.0429 73.4233 96.9112 73.54 96.7579 73.64C96.6046 73.7367 96.4396 73.8167 96.2629 73.88C96.0896 73.9433 95.9096 73.99 95.7229 74.02C95.5362 74.0533 95.3512 74.07 95.1679 74.07C94.8179 74.07 94.4946 74.0117 94.1979 73.895C93.9046 73.775 93.6496 73.6017 93.4329 73.375C93.2196 73.145 93.0529 72.8617 92.9329 72.525C92.8129 72.1883 92.7529 71.8017 92.7529 71.365C92.7529 71.0117 92.8062 70.6817 92.9129 70.375C93.0229 70.0683 93.1796 69.8033 93.3829 69.58C93.5862 69.3533 93.8346 69.1767 94.1279 69.05C94.4212 68.92 94.7512 68.855 95.1179 68.855C95.4212 68.855 95.7012 68.9067 95.9579 69.01C96.2179 69.11 96.4412 69.2567 96.6279 69.45C96.8179 69.64 96.9662 69.8767 97.0729 70.16C97.1796 70.44 97.2329 70.76 97.2329 71.12C97.2329 71.26 97.2179 71.3533 97.1879 71.4C97.1579 71.4467 97.1012 71.47 97.0179 71.47H93.6329C93.6429 71.79 93.6862 72.0683 93.7629 72.305C93.8429 72.5417 93.9529 72.74 94.0929 72.9C94.2329 73.0567 94.3996 73.175 94.5929 73.255C94.7862 73.3317 95.0029 73.37 95.2429 73.37C95.4662 73.37 95.6579 73.345 95.8179 73.295C95.9812 73.2417 96.1212 73.185 96.2379 73.125C96.3546 73.065 96.4512 73.01 96.5279 72.96C96.6079 72.9067 96.6762 72.88 96.7329 72.88C96.8062 72.88 96.8629 72.9083 96.9029 72.965L97.1529 73.29Z" fill="#181A1F"/>
<defs>
<clipPath id="clip0_1396_16723">
<rect width="24" height="24" fill="white" transform="translate(56.5 20)"/>
</clipPath>
</defs>
</svg>


