<svg width="36" height="36" viewBox="0 0 36 36" fill="none" xmlns="http://www.w3.org/2000/svg">
<path fill-rule="evenodd" clip-rule="evenodd" d="M18 0C8.055 0 0 8.055 0 18C0 27.945 8.055 36 18 36C27.945 36 36 27.945 36 18C36 8.055 27.945 0 18 0ZM17.955 34.29C8.955 34.29 1.62 27 1.62 18C1.62 9 8.91 1.665 17.955 1.665C26.955 1.665 34.29 8.955 34.29 18C34.245 27 26.955 34.29 17.955 34.29ZM26.595 11.34L26.415 11.88L26.235 11.34H26.01V12.105H26.145V11.475L26.37 12.105H26.505L26.73 11.475V12.105H26.865V11.34H26.595ZM25.2 11.34H25.83V11.475H25.56V12.105H25.425V11.475H25.2V11.34ZM21.195 10.935H10.845L9.27 13.455H19.62L21.195 10.935ZM23.22 10.935L31.095 23.49H28.125L26.55 20.97H21.96L23.535 18.45H24.975L23.22 15.66L18.315 23.49H5.265L8.415 18.45H6.12L7.695 15.93H17.775L16.2 18.45H11.385L9.81 20.97H16.92L23.22 10.935Z" fill="white"/>
</svg>
