<?xml version="1.0" encoding="utf-8"?>
<!-- Generator: Adobe Illustrator 25.0.0, SVG Export Plug-In . SVG Version: 6.00 Build 0)  -->
<svg version="1.1" id="Layer_1" xmlns="http://www.w3.org/2000/svg" xmlns:xlink="http://www.w3.org/1999/xlink" x="0px" y="0px"
	 viewBox="0 0 80 80" style="enable-background:new 0 0 80 80;" xml:space="preserve">
<style type="text/css">
	.st0{fill-rule:evenodd;clip-rule:evenodd;fill:#0D1042;}
</style>
<path id="EA_Logo" class="st0" d="M40,0C17.9,0,0,17.9,0,40c0,22.1,17.9,40,40,40c22.1,0,40-17.9,40-40C80,17.9,62.1,0,40,0z
	 M39.9,76.2C19.9,76.2,3.6,60,3.6,40c0-20,16.2-36.3,36.3-36.3c20,0,36.3,16.2,36.3,36.3C76.1,60,59.9,76.2,39.9,76.2z M59.1,25.2
	l-0.4,1.2l-0.4-1.2h-0.5v1.7h0.3v-1.4l0.5,1.4h0.3l0.5-1.4v1.4h0.3v-1.7H59.1z M56,25.2h1.4v0.3h-0.6v1.4h-0.3v-1.4H56V25.2z
	 M47.1,24.3h-23l-3.5,5.6h23L47.1,24.3z M51.6,24.3l17.5,27.9h-6.6L59,46.6H48.8l3.5-5.6h3.2l-3.9-6.2L40.7,52.2h-29l7-11.2h-5.1
	l3.5-5.6h22.4L36,41H25.3l-3.5,5.6h15.8L51.6,24.3z"/>
</svg>
