<svg width="50" height="50" viewBox="0 0 50 50" fill="none" xmlns="http://www.w3.org/2000/svg">
<path d="M25.0001 0C11.2023 0 0 11.2008 0 25.0001C0 38.7993 11.1859 50 25.0001 50C38.8141 50 50 38.8158 50 25.0001C50 11.1843 38.8141 0 25.0001 0ZM15.1117 15.1318H29.3692L27.2011 18.6021H12.9435L15.1117 15.1318ZM38.9455 32.4508L36.7773 28.9968H30.4534L32.6215 25.5264H34.6255L32.211 21.6613L25.4763 32.4508H7.49017L11.8266 25.5264H8.64L10.8083 22.056H24.7043L22.5361 25.5264H15.9002L13.7319 28.9968H23.5382L32.1945 15.1318L43.0191 32.4672H38.9291L38.9455 32.4508Z" fill="#2A60F2"/>
</svg>
