<?xml version="1.0" encoding="UTF-8"?>
<svg id="Layer_1" data-name="Layer 1" xmlns="http://www.w3.org/2000/svg" viewBox="0 0 2223.64 398.01">
  <defs>
    <style>
      .cls-1 {
        fill: #fff;
        fill-rule: evenodd;
      }
    </style>
  </defs>
  <path class="cls-1" d="M0,199.01C0,89.16,89.17,0,199.01,0s199.01,89.03,199.01,199.01-89.04,199.01-199.01,199.01S0,308.85,0,199.01ZM233.79,120.45h-113.49l-17.26,27.63h113.5l17.26-27.63ZM292.76,230.82l17.26,27.49-.13.13h32.56l-86.17-138-68.91,110.37h-78.06l17.26-27.63h52.82l17.26-27.62h-110.62l-17.26,27.62h25.37l-34.52,55.12h143.18l53.61-85.89,19.22,30.77h-15.95l-17.26,27.63h50.34ZM1370.27,175.59c8.18-12.34,23.24-20,40.77-20,32.59,0,50.89,23.64,50.89,55.6v84.05h-34.79v-81.32c0-17.8-12.33-29.88-28.43-29.88s-28.44,12.6-28.44,28.45v82.62h-34.79v-136.53h34.79v17.02ZM1130.09,183.25v-24.68h-34.8v136.52h34.8v-72.22c0-18.58,16.36-38.06,44.27-33.64v-33.12c-21.03-2.47-36.09,9.35-44.27,27.15ZM687.63,295.23h-34.79V103.62l34.79-10.91v202.52ZM1247.83,155.84c-39.98,0-72.18,29.88-72.18,71.18s32.33,70.93,72.18,70.93,72.19-29.88,72.19-70.93-32.33-71.18-72.19-71.18ZM1247.83,266.52c-21.03,0-37.78-16.11-37.78-39.1s16.75-39.49,37.78-39.49,37.78,15.85,37.78,39.49-16.62,39.1-37.78,39.1ZM702.95,226.77c0-41.31,31.81-71.18,70.89-71.18v.13c33.88,0,71.15,24.81,71.15,77.42,0,.82-.06,1.6-.12,2.41-.07.87-.14,1.78-.14,2.79h-105.29c4.67,17.15,19.99,28.71,38.56,28.71,10.65,0,20.51-4.16,26.23-12.6h38.56c-10.39,26.24-24.41,43.52-65.43,43.52s-74.39-29.88-74.39-71.19ZM773.84,185.98c-16.1,0-29.47,10.65-34.15,27.41h67.51c-2.99-16.24-17.27-27.41-33.37-27.41ZM1042.31,118.69l-34.15,10.91v130.29c0,21.04,14.8,35.33,39.99,35.33h33.89v-30.92h-24.02c-10.65,0-15.58-4.94-15.58-14.03v-62.09h39.73v-29.62h-39.73v-40.01l-.13.13ZM961.69,212.22c-5.45-14.68-18.31-24.03-33.63-24.03v-.13c-20.64,0-37,16.5-37,39.49s21.68,39.1,37,39.1,28.17-9.22,33.63-24.03h35.31c-6.62,33.13-29.6,55.34-68.94,55.34s-71.41-29.62-71.41-70.93,37.52-71.18,71.41-71.18,62.32,23.25,68.94,56.38h-35.31ZM1968.14,183.25v-24.68h-34.79v136.52h34.79v-72.22c0-18.58,16.36-38.06,44.27-33.64v-33.12c-21.03-2.47-36.09,9.35-44.27,27.15ZM637.12,295.22h-139.05V103.62h139.05v33.64h-100.75v44.95h81.53v33.12h-81.53v46.76h100.75v33.12ZM1728.06,295.23h38.82l18.83-40.79h79.84l19.48,40.79h39.98l-98.54-199.79-98.54,199.79h.13ZM1799.47,225.21l25.71-55.86,26.48,55.86h-52.19ZM2141.06,194.55c0,10.13,14.41,13.9,31.42,18.32v-.13c23.24,6.11,51.15,15.98,51.15,42.22s-21.29,43-56.08,43-60.5-20.91-63.49-50.14h31.68c1.82,14.16,19.08,23.77,31.68,23.77s21.68-3.51,21.68-13.38-13.5-13.18-29.53-17.43l-1.37-.37c-23.24-5.98-51.15-16.76-51.15-43s19.21-41.83,52.84-41.83,58.55,20.65,61.53,49.88h-31.67c-2.21-14.16-14.28-23.51-30.38-23.51-9.61,0-18.31,2.47-18.31,12.6ZM2058.49,118.69l-34.15,10.91v130.29c0,21.04,14.8,35.33,39.99,35.33h33.89v-30.92h-24.02c-10.65,0-15.58-4.94-15.58-14.03v-62.09h39.73v-29.62h-39.73v-40.01l-.13.13ZM1481.27,158.7h34.79v136.53h-34.79v-136.53ZM1498.54,96.74c-12.07,0-22.2,10.13-22.2,22.47s10.13,22.47,22.2,22.47,22.46-10.13,22.46-22.47-10.12-22.47-22.46-22.47ZM1636.42,212.22c-5.45-14.68-18.3-24.03-33.62-24.03v-.13c-20.52,0-36.87,16.5-36.87,39.49s21.55,39.1,36.87,39.1,28.17-9.22,33.62-24.03h35.32c-6.49,33.13-29.6,55.34-68.94,55.34s-71.41-29.62-71.41-70.93,37.52-71.18,71.41-71.18,62.32,23.25,68.94,56.38h-35.32Z"/>
</svg>