<svg width="112" height="50" viewBox="0 0 112 50" fill="none" xmlns="http://www.w3.org/2000/svg">
<path d="M25.0001 0C11.2023 0 0 11.2008 0 25.0001C0 38.7993 11.1859 50 25.0001 50C38.8141 50 50 38.8158 50 25.0001C50 11.1843 38.8141 0 25.0001 0ZM15.1117 15.1318H29.3692L27.2011 18.6021H12.9435L15.1117 15.1318ZM38.9455 32.4508L36.7773 28.9968H30.4534L32.6215 25.5264H34.6255L32.211 21.6613L25.4763 32.4508H7.49017L11.8266 25.5264H8.64L10.8083 22.056H24.7043L22.5361 25.5264H15.9002L13.7319 28.9968H23.5382L32.1945 15.1318L43.0191 32.4672H38.9291L38.9455 32.4508Z" fill="#2A60F2"/>
<path d="M74.84 18.1L69.54 32.7L65.42 23.46L61.3 32.7L56 18.1H58.88L61.72 26.16L65.54 17.6L69.36 26.16L72.2 18.1H74.84Z" fill="#2A60F2"/>
<path d="M80.5516 21.92C83.4716 21.92 85.8316 24.1 85.8316 27.12C85.8316 30.12 83.4716 32.3 80.5516 32.3C77.6316 32.3 75.2716 30.12 75.2716 27.12C75.2716 24.1 77.6316 21.92 80.5516 21.92ZM80.5516 30C82.0916 30 83.3116 28.82 83.3116 27.14C83.3116 25.42 82.0916 24.26 80.5516 24.26C79.0116 24.26 77.7916 25.42 77.7916 27.14C77.7916 28.82 79.0116 30 80.5516 30Z" fill="#2A60F2"/>
<path d="M93.9331 24.36C91.8931 24.04 90.6931 25.46 90.6931 26.82V32.1H88.1531V22.12H90.6931V23.92C91.2931 22.62 92.3931 21.76 93.9331 21.94V24.36Z" fill="#2A60F2"/>
<path d="M98.7244 17.3V32.1H96.1844V18.1L98.7244 17.3Z" fill="#2A60F2"/>
<path d="M105.905 32.24C103.365 32.24 101.045 30.08 101.045 27.1C101.045 24.12 103.405 21.96 106.005 21.96C107.205 21.96 108.305 22.44 109.085 23.28V18.1L111.625 17.3V32.1H109.085V30.94C108.265 31.76 107.145 32.24 105.905 32.24ZM106.345 29.98C107.905 29.98 109.125 28.8 109.125 27.1C109.125 25.4 107.905 24.22 106.345 24.22C104.805 24.22 103.565 25.4 103.565 27.1C103.565 28.8 104.805 29.98 106.345 29.98Z" fill="#2A60F2"/>
</svg>
